<?xml version="1.0" standalone="no"?>
<!DOCTYPE svg PUBLIC "-//W3C//DTD SVG 20010904//EN"
 "http://www.w3.org/TR/2001/REC-SVG-20010904/DTD/svg10.dtd">
<svg version="1.0" xmlns="http://www.w3.org/2000/svg"
 width="512.000000pt" height="512.000000pt" viewBox="0 0 512.000000 512.000000"
 preserveAspectRatio="xMidYMid meet">
<metadata>
Created by potrace 1.11, written by Peter Selinger 2001-2013
</metadata>
<g transform="translate(0.000000,512.000000) scale(0.100000,-0.100000)"
fill="#000000" stroke="none">
<path d="M590 2561 l0 -2561 1188 0 c1379 0 1539 6 1842 72 470 101 808 363
1024 795 193 386 205 917 28 1287 -69 144 -120 217 -227 321 -101 100 -230
185 -357 237 -43 18 -78 35 -78 38 0 3 21 16 46 28 104 51 264 171 326 246
104 124 181 281 221 448 30 128 32 487 4 616 -103 465 -387 776 -847 926 -115
37 -208 58 -375 83 -97 15 -265 17 -1452 20 l-1343 4 0 -2560z m2540 1645
c191 -37 276 -74 353 -152 92 -93 130 -205 130 -379 -1 -281 -107 -433 -365
-519 -155 -52 -214 -56 -955 -56 l-683 0 0 566 0 565 718 -4 c617 -3 729 -6
802 -21z m27 -1969 c296 -55 458 -177 531 -396 23 -68 26 -92 26 -231 0 -177
-13 -247 -71 -370 -46 -97 -158 -211 -253 -257 -80 -39 -188 -69 -300 -83 -51
-6 -362 -10 -782 -10 l-698 0 0 686 0 685 733 -4 c603 -4 746 -7 814 -20z"/>
</g>
</svg>
